<svg width="265" height="192" viewBox="0 0 265 192" fill="none" xmlns="http://www.w3.org/2000/svg">
<g clip-path="url(#clip0_28_155)">
<path d="M168.871 143.936V190.22H52.863C39.6454 190.22 28.8915 179.838 28.8915 167.078C28.8915 154.318 39.6454 143.936 52.863 143.936H168.871Z" fill="#F2F2F2"/>
<path d="M171.721 189.864C171.721 190.336 171.533 190.789 171.199 191.122C170.865 191.456 170.412 191.644 169.94 191.644H50.7967C44.3258 191.644 38.12 189.075 33.5444 184.501C28.9688 179.927 26.3982 173.724 26.3982 167.256C26.3982 160.788 28.9688 154.585 33.5444 150.011C38.12 145.438 44.3258 142.868 50.7967 142.868H169.94C170.412 142.868 170.865 143.056 171.199 143.39C171.533 143.724 171.721 144.176 171.721 144.649C171.721 145.121 171.533 145.573 171.199 145.907C170.865 146.241 170.412 146.429 169.94 146.429H50.7967C45.2705 146.429 39.9706 148.623 36.0629 152.529C32.1553 156.435 29.96 161.732 29.96 167.256C29.96 172.78 32.1553 178.078 36.0629 181.983C39.9706 185.889 45.2705 188.084 50.7967 188.084H169.94C170.412 188.084 170.865 188.272 171.199 188.605C171.533 188.939 171.721 189.392 171.721 189.864Z" fill="#FFC75F"/>
<path d="M168.871 154.617H44.2073C44.1129 154.617 44.0223 154.58 43.9555 154.513C43.8887 154.446 43.8511 154.356 43.8511 154.261C43.8511 154.167 43.8887 154.076 43.9555 154.009C44.0223 153.943 44.1129 153.905 44.2073 153.905H168.871C168.966 153.905 169.056 153.943 169.123 154.009C169.19 154.076 169.227 154.167 169.227 154.261C169.227 154.356 169.19 154.446 169.123 154.513C169.056 154.58 168.966 154.617 168.871 154.617Z" fill="#CCCCCC"/>
<path d="M168.871 163.162H44.2073C44.1129 163.162 44.0223 163.124 43.9555 163.058C43.8887 162.991 43.8511 162.9 43.8511 162.806C43.8511 162.711 43.8887 162.621 43.9555 162.554C44.0223 162.487 44.1129 162.45 44.2073 162.45H168.871C168.966 162.45 169.056 162.487 169.123 162.554C169.19 162.621 169.227 162.711 169.227 162.806C169.227 162.9 169.19 162.991 169.123 163.058C169.056 163.124 168.966 163.162 168.871 163.162Z" fill="#CCCCCC"/>
<path d="M168.871 171.706H44.2073C44.1129 171.706 44.0223 171.669 43.9555 171.602C43.8887 171.535 43.8511 171.445 43.8511 171.35C43.8511 171.256 43.8887 171.165 43.9555 171.099C44.0223 171.032 44.1129 170.994 44.2073 170.994H168.871C168.966 170.994 169.056 171.032 169.123 171.099C169.19 171.165 169.227 171.256 169.227 171.35C169.227 171.445 169.19 171.535 169.123 171.602C169.056 171.669 168.966 171.706 168.871 171.706Z" fill="#CCCCCC"/>
<path d="M168.871 180.251H44.2073C44.1129 180.251 44.0223 180.214 43.9555 180.147C43.8887 180.08 43.8511 179.99 43.8511 179.895C43.8511 179.801 43.8887 179.71 43.9555 179.643C44.0223 179.577 44.1129 179.539 44.2073 179.539H168.871C168.966 179.539 169.056 179.577 169.123 179.643C169.19 179.71 169.227 179.801 169.227 179.895C169.227 179.99 169.19 180.08 169.123 180.147C169.056 180.214 168.966 180.251 168.871 180.251Z" fill="#CCCCCC"/>
<path d="M258.529 152.649L229.477 188.689L139.143 115.935C128.851 107.645 126.994 92.817 135.003 82.881C143.013 72.945 157.903 71.6053 168.195 79.8947L258.529 152.649Z" fill="#F2F2F2"/>
<path d="M231.919 190.198C231.623 190.566 231.192 190.801 230.723 190.851C230.253 190.902 229.783 190.764 229.415 190.468L136.641 115.748C131.602 111.69 128.382 105.797 127.69 99.3658C126.998 92.9349 128.89 86.4925 132.95 81.456C137.01 76.4194 142.905 73.2013 149.339 72.5095C155.773 71.8177 162.218 73.7089 167.257 77.7671L260.031 152.487C260.213 152.634 260.365 152.815 260.477 153.02C260.59 153.225 260.66 153.451 260.685 153.683C260.71 153.916 260.689 154.151 260.624 154.375C260.558 154.6 260.448 154.809 260.301 154.991C260.155 155.173 259.973 155.324 259.768 155.436C259.563 155.548 259.337 155.619 259.105 155.644C258.872 155.669 258.637 155.648 258.412 155.582C258.188 155.516 257.979 155.406 257.796 155.259L165.022 80.5394C162.891 78.8221 160.443 77.5411 157.817 76.7698C155.191 75.9984 152.439 75.7517 149.718 76.0437C146.996 76.3358 144.359 77.1609 141.957 78.472C139.555 79.783 137.434 81.5543 135.717 83.6846C134 85.8149 132.719 88.2626 131.949 90.8877C131.178 93.5128 130.932 96.2639 131.226 98.984C131.519 101.704 132.345 104.34 133.658 106.74C134.97 109.141 136.743 111.26 138.875 112.975L231.65 187.695C232.017 187.992 232.252 188.422 232.303 188.891C232.353 189.361 232.215 189.831 231.919 190.198Z" fill="#CCCCCC"/>
<path d="M251.824 160.966L154.751 82.7832C154.715 82.7539 154.684 82.7177 154.662 82.6766C154.64 82.6356 154.625 82.5905 154.62 82.5441C154.615 82.4976 154.62 82.4506 154.633 82.4057C154.646 82.3608 154.668 82.319 154.697 82.2826C154.727 82.2462 154.763 82.2159 154.804 82.1935C154.845 82.1711 154.89 82.157 154.936 82.152C154.983 82.147 155.03 82.1512 155.075 82.1644C155.12 82.1775 155.162 82.1994 155.198 82.2288L252.271 160.411C252.308 160.441 252.338 160.477 252.361 160.518C252.383 160.559 252.397 160.604 252.402 160.65C252.407 160.697 252.403 160.744 252.39 160.789C252.377 160.834 252.355 160.876 252.326 160.912C252.296 160.949 252.26 160.979 252.219 161.001C252.178 161.024 252.133 161.038 252.086 161.043C252.04 161.048 251.993 161.043 251.948 161.03C251.903 161.017 251.861 160.995 251.824 160.966V160.966Z" fill="#CCCCCC"/>
<path d="M246.461 167.619L149.388 89.4368C149.314 89.3775 149.267 89.2915 149.257 89.1977C149.247 89.1039 149.275 89.0099 149.334 88.9364C149.393 88.863 149.479 88.816 149.573 88.8059C149.667 88.7957 149.761 88.8232 149.835 88.8823L246.908 167.065C246.944 167.094 246.975 167.13 246.997 167.171C247.02 167.212 247.034 167.257 247.039 167.304C247.044 167.35 247.04 167.398 247.027 167.442C247.013 167.487 246.992 167.529 246.962 167.566C246.933 167.602 246.897 167.632 246.855 167.655C246.814 167.677 246.769 167.691 246.723 167.696C246.676 167.701 246.629 167.697 246.584 167.684C246.539 167.671 246.497 167.649 246.461 167.619Z" fill="#CCCCCC"/>
<path d="M241.098 174.273L144.024 96.0903C143.951 96.031 143.904 95.945 143.894 95.8511C143.883 95.7573 143.911 95.6632 143.97 95.5897C144.03 95.5162 144.116 95.4692 144.21 95.4591C144.303 95.449 144.398 95.4766 144.471 95.5358L241.545 173.718C241.581 173.748 241.611 173.784 241.634 173.825C241.656 173.866 241.67 173.911 241.675 173.957C241.68 174.004 241.676 174.051 241.663 174.096C241.65 174.141 241.628 174.182 241.598 174.219C241.569 174.255 241.533 174.286 241.492 174.308C241.451 174.33 241.406 174.344 241.359 174.349C241.313 174.354 241.266 174.35 241.221 174.337C241.176 174.324 241.134 174.302 241.098 174.273V174.273Z" fill="#CCCCCC"/>
<path d="M235.734 180.926L138.661 102.744C138.624 102.715 138.594 102.678 138.572 102.637C138.549 102.596 138.535 102.551 138.53 102.505C138.525 102.458 138.529 102.411 138.542 102.366C138.556 102.321 138.578 102.28 138.607 102.243C138.636 102.207 138.672 102.177 138.713 102.154C138.755 102.132 138.8 102.118 138.846 102.113C138.893 102.108 138.94 102.112 138.985 102.125C139.029 102.138 139.071 102.16 139.108 102.189L236.181 180.372C236.218 180.401 236.248 180.437 236.27 180.478C236.293 180.519 236.307 180.564 236.312 180.611C236.317 180.658 236.313 180.705 236.3 180.749C236.287 180.794 236.265 180.836 236.235 180.873C236.206 180.909 236.17 180.939 236.129 180.962C236.087 180.984 236.042 180.998 235.996 181.003C235.949 181.008 235.902 181.004 235.857 180.991C235.812 180.978 235.771 180.956 235.734 180.926Z" fill="#CCCCCC"/>
<path d="M264.644 192H0.356183C0.261717 192 0.17112 191.963 0.104323 191.896C0.037526 191.829 0 191.738 0 191.644C0 191.55 0.037526 191.459 0.104323 191.392C0.17112 191.325 0.261717 191.288 0.356183 191.288H264.644C264.738 191.288 264.829 191.325 264.896 191.392C264.962 191.459 265 191.55 265 191.644C265 191.738 264.962 191.829 264.896 191.896C264.829 191.963 264.738 192 264.644 192Z" fill="#CCCCCC"/>
<path d="M120.419 139.072L116.347 139.071L114.41 123.372L120.42 123.373L120.419 139.072Z" fill="#A0616A"/>
<path d="M113.438 137.908H121.291V142.851H108.493C108.493 142.202 108.621 141.559 108.87 140.959C109.118 140.36 109.483 139.815 109.942 139.356C110.401 138.897 110.946 138.533 111.546 138.285C112.146 138.036 112.789 137.908 113.438 137.908Z" fill="#2F2E41"/>
<path d="M78.8183 139.072L74.7464 139.071L72.8098 123.372L78.8197 123.373L78.8183 139.072Z" fill="#A0616A"/>
<path d="M71.8378 137.908H79.6908V142.851H66.8932C66.8932 142.202 67.0211 141.559 67.2696 140.959C67.5181 140.36 67.8823 139.815 68.3415 139.356C68.8006 138.897 69.3457 138.533 69.9456 138.285C70.5455 138.036 71.1884 137.908 71.8378 137.908Z" fill="#2F2E41"/>
<path d="M92.4191 22.6195V20.8393C92.4191 17.7941 93.6293 14.8737 95.7835 12.7204C97.9377 10.5671 100.859 9.35745 103.906 9.35745H103.906C106.952 9.35745 109.874 10.5671 112.028 12.7204C114.183 14.8737 115.393 17.7941 115.393 20.8393V22.6195C115.393 24.8148 114.52 26.9203 112.967 28.4726C111.414 30.025 109.308 30.8971 107.112 30.8971H100.7C99.6128 30.8971 98.536 30.683 97.5312 30.267C96.5265 29.851 95.6136 29.2413 94.8446 28.4726C94.0756 27.704 93.4656 26.7915 93.0494 25.7872C92.6333 24.7829 92.4191 23.7065 92.4191 22.6195Z" fill="#2F2E41"/>
<path d="M103.906 31.5096C108.737 31.5096 112.654 27.5946 112.654 22.7652C112.654 17.9358 108.737 14.0208 103.906 14.0208C99.0744 14.0208 95.1577 17.9358 95.1577 22.7652C95.1577 27.5946 99.0744 31.5096 103.906 31.5096Z" fill="#A0616A"/>
<path d="M56.3213 52.8185C56.6763 52.4834 57.1005 52.2302 57.564 52.0767C58.0275 51.9232 58.519 51.8732 59.0039 51.9301C59.4889 51.9871 59.9554 52.1496 60.3707 52.4063C60.786 52.6629 61.14 53.0075 61.4077 53.4157L68.9069 51.9977L70.8805 56.3429L60.2619 58.1966C59.5461 58.6006 58.7069 58.7281 57.9033 58.555C57.0996 58.3818 56.3875 57.92 55.9018 57.2571C55.416 56.5942 55.1904 55.7762 55.2678 54.9581C55.3451 54.14 55.7199 53.3787 56.3213 52.8185V52.8185Z" fill="#A0616A"/>
<path d="M97.0856 37.0165L97.1837 37.165L84.8862 45.2626L64.1356 51.8859C63.8605 51.9742 63.6246 52.1551 63.468 52.3978C63.3113 52.6405 63.2437 52.9299 63.2765 53.2168L63.7292 57.1141C63.7493 57.2866 63.8052 57.453 63.8933 57.6026C63.9815 57.7522 64.1 57.8818 64.2412 57.9829C64.3824 58.0841 64.5432 58.1547 64.7132 58.1901C64.8833 58.2256 65.0589 58.2251 65.2288 58.1888L84.7582 54.0045C85.7033 53.8031 86.597 53.4098 87.3838 52.849L101.199 43.0238C101.7 42.6656 102.1 42.1841 102.359 41.6258C102.619 41.0676 102.73 40.4518 102.681 39.8382C102.63 39.2238 102.42 38.6331 102.072 38.1243C101.723 37.6156 101.249 37.2062 100.694 36.9364C100.139 36.6667 99.524 36.546 98.9085 36.586C98.2931 36.6261 97.6986 36.8257 97.1837 37.165L97.0856 37.0165Z" fill="#CCCCCC"/>
<path d="M116.42 134.617C116.107 134.617 115.801 134.526 115.539 134.355C115.278 134.184 115.071 133.941 114.946 133.655L96.2782 87.5492C96.2346 87.4492 96.1615 87.3649 96.0685 87.3077C95.9756 87.2506 95.8674 87.2232 95.7584 87.2293C95.6495 87.2355 95.545 87.2748 95.4591 87.3421C95.3732 87.4093 95.3099 87.5013 95.2779 87.6055L80.0481 132.491C79.9838 132.7 79.8774 132.894 79.7355 133.06C79.5937 133.226 79.4192 133.362 79.223 133.458C79.0268 133.554 78.8129 133.61 78.5945 133.62C78.3762 133.631 78.1579 133.597 77.9532 133.52L72.8461 131.606C72.5689 131.503 72.3257 131.325 72.1435 131.092C71.9613 130.86 71.8474 130.581 71.8142 130.287C69.5167 110.281 89.5521 59.7833 89.7548 59.2757L89.8109 59.1351L108.075 63.1734L108.113 63.2148C115.4 71.1605 121.389 121.276 122.516 131.242C122.558 131.602 122.476 131.966 122.283 132.273C122.091 132.58 121.8 132.812 121.458 132.932L116.95 134.526C116.779 134.586 116.6 134.617 116.42 134.617Z" fill="#2F2E41"/>
<path d="M100.683 64.7988C96.258 64.7988 91.3246 63.9169 89.8061 60.277L89.7711 60.1934L89.8183 60.1159C91.017 58.1501 92.6012 54.7967 91.7497 54.1672C90.0723 52.9275 89.2584 50.8882 89.3307 48.1057C89.4875 42.0654 93.605 36.7026 99.5766 34.761H99.5766C101.243 34.2278 102.94 33.7913 104.657 33.4535C105.909 33.201 107.201 33.2288 108.441 33.5349C109.681 33.8409 110.837 34.4176 111.828 35.2236C112.831 36.0348 113.641 37.058 114.201 38.2197C114.762 39.3813 115.057 40.6525 115.068 41.942C115.13 48.3971 114.136 57.3876 109.044 63.56C108.805 63.8464 108.473 64.0394 108.106 64.1052C105.656 64.5481 103.173 64.7802 100.683 64.7988Z" fill="#CCCCCC"/>
<path d="M99.037 64.5571C99.2778 63.6936 99.8498 62.96 100.629 62.5158C101.408 62.0715 102.33 61.9524 103.197 62.1845C103.374 62.2339 103.546 62.2977 103.712 62.3754L109.407 57.1956L113.367 59.8623L105.224 67.0651C104.856 67.7278 104.277 68.2485 103.579 68.5444C102.881 68.8403 102.104 68.8944 101.372 68.698C100.946 68.5814 100.546 68.3813 100.198 68.1095C99.849 67.8377 99.5577 67.4995 99.3405 67.1144C99.1234 66.7293 98.9848 66.3051 98.9327 65.8661C98.8806 65.4272 98.916 64.9822 99.037 64.5571Z" fill="#A0616A"/>
<path d="M108.505 64.6229C108.135 64.6231 107.777 64.4954 107.491 64.2615L105.246 62.4273C105.058 62.2744 104.908 62.0811 104.806 61.862C104.704 61.6429 104.653 61.4035 104.657 61.1619C104.661 60.9203 104.719 60.6827 104.828 60.4668C104.937 60.251 105.093 60.0625 105.284 59.9154L114.702 52.6953C114.814 52.6093 114.887 52.4827 114.906 52.3431C114.925 52.2035 114.888 52.0621 114.803 51.9495L108.99 44.2678C108.315 43.3783 107.976 42.2787 108.034 41.1635C108.092 40.0483 108.543 38.9896 109.307 38.1747C110.111 37.3063 111.213 36.7719 112.393 36.6776C113.573 36.5832 114.746 36.9358 115.678 37.6653L115.715 37.7041L121.785 46.392C122.441 46.9064 122.97 47.5655 123.329 48.3179C123.688 49.0703 123.869 49.8955 123.857 50.7291C123.844 51.5628 123.639 52.3822 123.257 53.1236C122.876 53.8649 122.328 54.508 121.656 55.0027L109.459 64.3087C109.182 64.5128 108.848 64.6229 108.505 64.6229Z" fill="#CCCCCC"/>
<path d="M96.157 20.3052V15.9667L103.906 12.5844L111.295 15.9667V20.3052C111.295 20.4941 111.22 20.6752 111.086 20.8087C110.953 20.9423 110.771 21.0173 110.582 21.0173H96.8693C96.6804 21.0173 96.4992 20.9423 96.3656 20.8087C96.232 20.6752 96.157 20.4941 96.157 20.3052Z" fill="#2F2E41"/>
<path d="M103.55 9.933C102.411 6.28782 104.804 2.11027 108.341 0.667411C111.879 -0.775446 116.111 0.233155 119.096 2.61697C122.081 5.00079 123.933 8.5713 124.914 12.2621C125.895 15.953 126.081 19.8017 126.262 23.6163C130.609 24.4143 133.565 29.567 132.06 33.7197C130.554 37.8724 124.981 39.9355 121.133 37.765C117.284 35.5945 116.169 29.7599 118.947 26.3246C120.261 24.6991 120.995 22.6817 121.033 20.592C121.071 18.5024 120.41 16.4598 119.156 14.7879C117.901 13.116 116.124 11.9103 114.106 11.3618C112.089 10.8133 109.946 10.9533 108.017 11.7596C105.875 12.655 103.187 10.3286 103.55 9.933Z" fill="#2F2E41"/>
<path d="M54.7147 35.9881C49.5111 35.954 44.3726 34.8291 39.6311 32.686C39.3488 32.5603 39.1092 32.3552 38.9415 32.0958C38.7738 31.8364 38.6852 31.5338 38.6865 31.2249V18.2592C38.687 17.8344 38.856 17.4272 39.1565 17.1268C39.457 16.8265 39.8644 16.6575 40.2893 16.657H69.1401C69.5651 16.6575 69.9725 16.8265 70.273 17.1268C70.5735 17.4272 70.7425 17.8344 70.743 18.2592V31.2249C70.7442 31.5338 70.6556 31.8364 70.4879 32.0958C70.3202 32.3552 70.0807 32.5603 69.7984 32.6861C65.0569 34.8291 59.9183 35.954 54.7147 35.9881Z" fill="#FFC75F"/>
<path d="M54.7108 25.4843C54.4969 25.4845 54.2851 25.4419 54.0879 25.3592L31.2096 15.711C30.9146 15.5866 30.6636 15.3767 30.489 15.1084C30.3144 14.84 30.2243 14.5256 30.2301 14.2056C30.236 13.8856 30.3376 13.5747 30.5219 13.3129C30.7062 13.0512 30.9647 12.8506 31.2641 12.7371L54.1428 4.06153C54.5113 3.92116 54.9187 3.92203 55.2866 4.06397L77.8586 12.7395C78.1563 12.8539 78.4131 13.0545 78.5961 13.3157C78.7791 13.5768 78.88 13.8865 78.8859 14.2053C78.8918 14.524 78.8024 14.8373 78.6292 15.105C78.4559 15.3727 78.2067 15.5827 77.9135 15.708L55.3412 25.356C55.1419 25.4409 54.9274 25.4845 54.7108 25.4843Z" fill="#FFC75F"/>
<path d="M41.3579 33.5683C42.5381 33.5683 43.495 32.6119 43.495 31.4321C43.495 30.2523 42.5381 29.296 41.3579 29.296C40.1776 29.296 39.2208 30.2523 39.2208 31.4321C39.2208 32.6119 40.1776 33.5683 41.3579 33.5683Z" fill="#3F3D56"/>
<path opacity="0.2" d="M77.9915 14.3385L55.4191 23.9866C55.2431 24.0618 55.0538 24.1008 54.8624 24.1012C54.671 24.1017 54.4815 24.0636 54.3051 23.9893L31.4268 14.3414C31.1395 14.2231 30.8998 14.0125 30.7456 13.7429C30.6447 13.9177 30.5822 14.112 30.5622 14.3129C30.5422 14.5137 30.5652 14.7165 30.6296 14.9078C30.694 15.0991 30.7984 15.2745 30.9359 15.4224C31.0733 15.5703 31.2407 15.6872 31.4268 15.7655L54.3051 25.4134C54.4815 25.4877 54.671 25.5258 54.8624 25.5253C55.0538 25.5249 55.2431 25.4859 55.4191 25.4107L77.9915 15.7626C78.1766 15.6837 78.343 15.5664 78.4795 15.4184C78.616 15.2705 78.7195 15.0953 78.7833 14.9044C78.8471 14.7135 78.8696 14.5113 78.8494 14.3111C78.8293 14.1108 78.7668 13.9172 78.6663 13.7428C78.5132 14.0103 78.2759 14.2197 77.9915 14.3385Z" fill="black"/>
<path d="M41.5374 31.4238C41.6319 31.4238 41.7225 31.3862 41.7893 31.3195C41.8561 31.2527 41.8936 31.1621 41.8936 31.0677V19.1546L53.6409 14.8769C53.7354 14.8783 53.8266 14.8421 53.8944 14.7763C53.9621 14.7106 54.001 14.6206 54.0024 14.5262C54.0038 14.4317 53.9677 14.3406 53.9019 14.2729C53.8361 14.2051 53.746 14.1662 53.6516 14.1648L41.9042 18.4425C41.8097 18.4404 41.7157 18.4574 41.6279 18.4926C41.5402 18.5278 41.4605 18.5804 41.3937 18.6473C41.3262 18.7134 41.2726 18.7923 41.2361 18.8795C41.1996 18.9666 41.181 19.0601 41.1812 19.1546V31.0677C41.1813 31.1621 41.2188 31.2527 41.2856 31.3195C41.3524 31.3862 41.443 31.4237 41.5374 31.4238Z" fill="#3F3D56"/>
</g>
<defs>
<clipPath id="clip0_28_155">
<rect width="265" height="192" fill="white"/>
</clipPath>
</defs>
</svg>
