<svg width="24" height="24" viewBox="0 0 24 24" fill="#f00" xmlns="http://www.w3.org/2000/svg">
<path d="M14 15C14.2833 15 14.5293 14.896 14.738 14.688C14.946 14.4793 15.05 14.2333 15.05 13.95C15.05 13.6667 14.946 13.4207 14.738 13.212C14.5293 13.004 14.2833 12.9 14 12.9C13.7167 12.9 13.471 13.004 13.263 13.212C13.0543 13.4207 12.95 13.6667 12.95 13.95C12.95 14.2333 13.0543 14.4793 13.263 14.688C13.471 14.896 13.7167 15 14 15ZM13.25 11.8H14.75C14.75 11.3167 14.8 10.9623 14.9 10.737C15 10.5123 15.2333 10.2167 15.6 9.85C16.1 9.35 16.4333 8.94567 16.6 8.637C16.7667 8.329 16.85 7.96667 16.85 7.55C16.85 6.8 16.5873 6.18767 16.062 5.713C15.5373 5.23767 14.85 5 14 5C13.3167 5 12.721 5.19167 12.213 5.575C11.7043 5.95833 11.35 6.46667 11.15 7.1L12.5 7.65C12.65 7.23333 12.8543 6.92067 13.113 6.712C13.371 6.504 13.6667 6.4 14 6.4C14.4 6.4 14.725 6.51233 14.975 6.737C15.225 6.96233 15.35 7.26667 15.35 7.65C15.35 7.88333 15.2833 8.104 15.15 8.312C15.0167 8.52067 14.7833 8.78333 14.45 9.1C13.9 9.58333 13.5627 9.96233 13.438 10.237C13.3127 10.5123 13.25 11.0333 13.25 11.8ZM8 18C7.45 18 6.97933 17.8043 6.588 17.413C6.196 17.021 6 16.55 6 16V4C6 3.45 6.196 2.979 6.588 2.587C6.97933 2.19567 7.45 2 8 2H20C20.55 2 21.021 2.19567 21.413 2.587C21.8043 2.979 22 3.45 22 4V16C22 16.55 21.8043 17.021 21.413 17.413C21.021 17.8043 20.55 18 20 18H8ZM8 16H20V4H8V16ZM4 22C3.45 22 2.97933 21.8043 2.588 21.413C2.196 21.021 2 20.55 2 20V6H4V20H18V22H4ZM8 4V16V4Z" fill="#F8F8F8"/>
</svg>
