<svg width="110" height="110" viewBox="0 0 110 110" fill="none" xmlns="http://www.w3.org/2000/svg">
<path d="M110 53.5746C110 46.2871 100.875 39.38 86.8817 35.0992C90.1129 20.8405 88.6783 9.49212 82.3533 5.85754C80.8207 4.99918 79.0862 4.56711 77.33 4.60629V9.60212C78.3613 9.60212 79.1908 9.80837 79.8875 10.1888C82.9354 11.9396 84.26 18.5946 83.2288 27.1609C82.9813 29.2692 82.5779 31.4875 82.0829 33.7517C77.3971 32.6225 72.6413 31.8064 67.8471 31.3088C64.991 27.3685 61.875 23.6232 58.52 20.098C65.8304 13.3055 72.6917 9.58379 77.3575 9.58379V4.58337C71.1883 4.58337 63.1171 8.97879 54.9542 16.6009C46.7958 9.02921 38.72 4.67504 32.5554 4.67504V9.67087C37.1983 9.67087 44.0825 13.3742 51.3929 20.1209C48.2533 23.4209 45.1138 27.1609 42.13 31.3088C37.3259 31.8009 32.5616 32.6248 27.8713 33.7746C27.3756 31.6287 26.9855 29.4597 26.7025 27.2755C25.6483 18.7046 26.95 12.0496 29.9796 10.2805C30.6488 9.87712 31.5242 9.69379 32.5554 9.69379V4.69796C30.6763 4.69796 28.9667 5.10129 27.4908 5.94921C21.1888 9.58379 19.7771 20.9046 23.0267 35.1221C9.07958 39.4305 0 46.31 0 53.5746C0 60.8621 9.12542 67.7692 23.1183 72.0455C19.8871 86.3088 21.3217 97.6571 27.6467 101.287C29.1042 102.14 30.8092 102.543 32.6883 102.543C38.8575 102.543 46.9288 98.1475 55.0917 90.5255C63.25 98.1017 71.3213 102.451 77.4904 102.451C79.26 102.489 81.0078 102.055 82.555 101.195C88.8571 97.5655 90.2688 86.2446 87.0192 72.0271C100.92 67.7463 110 60.8392 110 53.5746ZM80.8042 38.6192C79.9333 41.6161 78.9238 44.5709 77.7792 47.4742C75.9053 43.8293 73.8478 40.2819 71.6146 36.8455C74.8 37.3175 77.8708 37.8996 80.8088 38.6192H80.8042ZM70.5375 62.4984C68.8587 65.4293 67.0559 68.2873 65.1338 71.0646C58.4066 71.6576 51.6406 71.6652 44.9121 71.0875C41.0527 65.5746 37.6775 59.7381 34.8242 53.6434C37.6731 47.5343 41.034 41.6772 44.8708 36.135C51.5964 35.5409 58.3608 35.5317 65.0879 36.1075C66.9488 38.775 68.7683 41.6259 70.5146 44.6325C72.2196 47.5659 73.7688 50.545 75.1804 53.5517C73.7531 56.5948 72.2042 59.5795 70.5375 62.4984ZM77.7792 59.5834C78.9892 62.5855 80.025 65.5921 80.8729 68.5071C77.9396 69.2267 74.8413 69.8317 71.6375 70.2992C73.8615 66.8315 75.9113 63.2552 77.7792 59.5834ZM55.0458 83.5084C52.9604 81.3542 50.875 78.9571 48.8125 76.3309C50.8292 76.4225 52.8917 76.4913 54.9771 76.4913C57.0854 76.4913 59.1708 76.4455 61.2104 76.3309C59.1937 78.9571 57.1083 81.3542 55.0458 83.5084ZM38.3625 70.2992C35.2722 69.8514 32.2042 69.2611 29.1683 68.53C29.9979 65.638 31.0292 62.6542 32.1933 59.675C33.1146 61.4625 34.0817 63.2592 35.1358 65.0559C36.19 66.848 37.2625 68.5988 38.3625 70.2992ZM54.9313 23.6409C57.0167 25.795 59.1021 28.1921 61.1646 30.8184C59.1479 30.7267 57.0854 30.658 55 30.658C52.8917 30.658 50.8063 30.7038 48.7667 30.8184C50.7833 28.1921 52.8688 25.795 54.9313 23.6409ZM38.3396 36.85C36.1161 40.3102 34.0663 43.8789 32.1979 47.543C31.021 44.6209 29.9885 41.6427 29.1042 38.6192C32.0375 37.9225 35.1358 37.3175 38.3396 36.85ZM18.0492 64.9184C10.1108 61.5359 4.9775 57.0946 4.9775 53.5746C4.9775 50.0546 10.1108 45.5905 18.0492 42.2309C19.9742 41.4013 22.0825 40.6588 24.2596 39.9667C25.5383 44.3575 27.2204 48.9317 29.3013 53.6205C27.3367 58.0305 25.6752 62.5693 24.3283 67.2055C22.1992 66.5462 20.1036 65.7829 18.0492 64.9184ZM30.1125 96.9559C27.0646 95.2142 25.74 88.55 26.7713 79.9884C27.0188 77.88 27.4221 75.6571 27.9171 73.393C32.3079 74.47 37.1067 75.2996 42.1529 75.8405C45.0091 79.7807 48.1251 83.526 51.48 87.0513C44.1696 93.8438 37.3083 97.5655 32.6425 97.5655C31.7622 97.5751 30.8932 97.3673 30.1125 96.9605V96.9559ZM83.2975 79.8738C84.3517 88.44 83.05 95.0996 80.0204 96.8688C79.3512 97.2721 78.4758 97.4509 77.4446 97.4509C72.8017 97.4509 65.9175 93.7521 58.6071 87.0009C61.948 83.4903 65.043 79.7537 67.87 75.8175C72.6741 75.3254 77.4384 74.5015 82.1288 73.3517C82.6467 75.6159 83.0454 77.7884 83.2975 79.8738ZM91.9279 64.9184C90.0029 65.748 87.8946 66.4905 85.7175 67.1825C84.347 62.5227 82.6626 57.9611 80.6758 53.5288C82.7383 48.8675 84.3929 44.3163 85.6488 39.9438C87.7847 40.6052 89.8878 41.3685 91.9508 42.2309C99.8892 45.6134 105.022 50.0546 105.022 53.5746C105 57.0946 99.8662 61.5588 91.9279 64.9184Z" fill="white"/>
<path d="M54.9771 63.823C57.6951 63.823 60.3018 62.7432 62.2238 60.8213C64.1457 58.8994 65.2254 56.2927 65.2254 53.5746C65.2254 50.8566 64.1457 48.2499 62.2238 46.328C60.3018 44.406 57.6951 43.3263 54.9771 43.3263C52.2591 43.3263 49.6524 44.406 47.7304 46.328C45.8085 48.2499 44.7288 50.8566 44.7288 53.5746C44.7288 56.2927 45.8085 58.8994 47.7304 60.8213C49.6524 62.7432 52.2591 63.823 54.9771 63.823Z" fill="white"/>
</svg>
