<svg width="111" height="110" viewBox="0 0 111 110" fill="none" xmlns="http://www.w3.org/2000/svg">
<path fill-rule="evenodd" clip-rule="evenodd" d="M0.5 0H110.5V110H0.5V0ZM84.5904 92.2167C79.4892 92.2167 76.6063 89.5583 74.3925 85.9375L65.9912 90.8188C69.0254 96.8138 75.2267 101.388 84.8288 101.388C94.6463 101.388 101.957 96.2913 101.957 86.9825C101.957 78.3521 96.9975 74.5158 88.2158 70.7438L85.6308 69.6392C81.1942 67.7142 79.2738 66.4629 79.2738 63.36C79.2738 60.8529 81.1988 58.9325 84.2238 58.9325C87.1892 58.9325 89.1004 60.1838 90.8742 63.36L98.9225 58.1946C95.5171 52.2042 90.7963 49.9171 84.2238 49.9171C74.9929 49.9171 69.085 55.8204 69.085 63.5754C69.085 71.9858 74.035 75.9688 81.4967 79.145L84.0817 80.2542C88.7979 82.3167 91.6075 83.5725 91.6075 87.1154C91.6075 90.0763 88.8713 92.2167 84.5904 92.2167ZM44.5321 92.1479C40.98 92.1479 39.4996 89.7188 37.8771 86.8313L29.4621 91.9279C31.9004 97.0888 36.6946 101.37 44.9675 101.37C54.1296 101.37 60.4042 96.4975 60.4042 85.7954V50.5038H50.0687V85.6579C50.0687 90.8233 47.9238 92.1479 44.5275 92.1479H44.5321Z" fill="white"/>
</svg>
