<svg width="65" height="52" viewBox="0 0 65 52" fill="none" xmlns="http://www.w3.org/2000/svg">
<g clip-path="url(#clip0_28_2)">
<path d="M39.8937 0.121879C38.1672 -0.375777 36.3695 0.629692 35.8719 2.35625L22.8719 47.8563C22.3742 49.5828 23.3797 51.3805 25.1062 51.8781C26.8328 52.3758 28.6305 51.3703 29.1281 49.6438L42.1281 4.14375C42.6258 2.41719 41.6203 0.619535 39.8937 0.121879V0.121879ZM48.0797 12.3195C46.8101 13.5891 46.8101 15.6508 48.0797 16.9203L57.1492 26L48.0695 35.0797C46.8 36.3492 46.8 38.4109 48.0695 39.6805C49.3391 40.95 51.4008 40.95 52.6703 39.6805L64.0453 28.3055C65.3148 27.0359 65.3148 24.9742 64.0453 23.7047L52.6703 12.3297C51.4008 11.0602 49.3391 11.0602 48.0695 12.3297L48.0797 12.3195ZM16.9305 12.3195C15.6609 11.05 13.5992 11.05 12.3297 12.3195L0.954681 23.6945C-0.31485 24.9641 -0.31485 27.0258 0.954681 28.2953L12.3297 39.6703C13.5992 40.9398 15.6609 40.9398 16.9305 39.6703C18.2 38.4008 18.2 36.3391 16.9305 35.0695L7.85077 26L16.9305 16.9203C18.2 15.6508 18.2 13.5891 16.9305 12.3195Z" fill="#FFC75F"/>
</g>
<defs>
<clipPath id="clip0_28_2">
<rect width="65" height="52" fill="white"/>
</clipPath>
</defs>
</svg>
