<svg width="102" height="110" viewBox="0 0 102 110" fill="none" xmlns="http://www.w3.org/2000/svg">
<path d="M51 109.798C49.4325 109.798 47.975 109.39 46.6138 108.685L32.7309 100.719C30.6455 99.6095 31.6905 99.2062 32.3184 99.0045C35.1325 98.097 35.655 97.8954 38.5792 96.2775C38.8909 96.0758 39.3125 96.1766 39.6242 96.3783L50.2713 102.534C50.6838 102.735 51.2109 102.735 51.5225 102.534L93.1713 79.232C93.5838 79.0304 93.7946 78.627 93.7946 78.1229V31.6204C93.7946 31.1162 93.5884 30.7129 93.1713 30.5112L51.5225 7.31495C51.1055 7.11328 50.583 7.11328 50.2713 7.31495L8.62254 30.5112C8.20546 30.7129 7.99462 31.217 7.99462 31.6204V78.1229C7.99462 78.5262 8.20546 79.0304 8.62254 79.232L19.9984 85.5891C26.1584 88.6141 30.0175 85.085 30.0175 81.5558V35.6583C30.0175 35.0533 30.54 34.4483 31.2734 34.4483H36.5946C37.2225 34.4483 37.8459 34.9524 37.8459 35.6583V81.5512C37.8459 89.5216 33.3588 94.16 25.5305 94.16C23.1288 94.16 21.2496 94.16 15.9284 91.6391L4.96962 85.5891C3.64909 84.863 2.54634 83.7975 1.77526 82.5027C1.00417 81.2079 0.592714 79.7307 0.583374 78.2237V31.7212C0.583374 28.6962 2.25171 25.8729 4.96962 24.3604L46.6184 1.05411C47.9743 0.35876 49.4762 -0.00390625 51 -0.00390625C52.5239 -0.00390625 54.0258 0.35876 55.3817 1.05411L97.035 24.3558C99.7484 25.8683 101.417 28.6916 101.417 31.7166V78.2191C101.417 81.2441 99.7484 84.0675 97.035 85.5845L55.3817 108.882C53.9988 109.481 52.5073 109.79 51 109.789V109.798ZM63.838 77.8204C45.5734 77.8204 41.815 69.7537 41.815 62.8925C41.815 62.2875 42.3375 61.6825 43.0663 61.6825H48.493C49.1209 61.6825 49.6388 62.0858 49.6388 62.6908C50.4775 68.035 52.8792 70.6566 63.9434 70.6566C72.7113 70.6566 76.4696 68.7408 76.4696 64.2033C76.4696 61.5816 75.4246 59.6658 61.7525 58.355C50.3721 57.2412 43.2771 54.8258 43.2771 46.0487C43.2771 37.8766 50.3721 33.032 62.275 33.032C75.6355 33.032 82.2125 37.4733 83.0467 47.1579C83.0374 47.4857 82.9269 47.8027 82.7305 48.0654C82.5242 48.267 82.2125 48.4687 81.8963 48.4687H76.4696C76.206 48.4623 75.9516 48.3703 75.7449 48.2066C75.5382 48.0429 75.3904 47.8163 75.3238 47.5612C74.068 42.0154 70.8321 40.1958 62.275 40.1958C52.6684 40.1958 51.5225 43.4225 51.5225 45.8424C51.5225 48.7712 52.8792 49.6787 65.8225 51.292C78.6605 52.9054 84.715 55.2245 84.715 63.8962C84.6096 72.7787 77.0975 77.8204 63.838 77.8204Z" fill="white"/>
</svg>
